<?xml version="1.0" encoding="utf-8"?>
<!-- Generator: Adobe Illustrator 16.0.0, SVG Export Plug-In . SVG Version: 6.00 Build 0)  -->
<!DOCTYPE svg PUBLIC "-//W3C//DTD SVG 1.1//EN" "http://www.w3.org/Graphics/SVG/1.1/DTD/svg11.dtd">
<svg version="1.1" id="Layer_1" xmlns="http://www.w3.org/2000/svg" xmlns:xlink="http://www.w3.org/1999/xlink" x="0px" y="0px"
	 width="792px" height="612px" viewBox="0 0 792 612" enable-background="new 0 0 792 612" xml:space="preserve">
<path fill="#A80000" d="M396,76.5c-3.466,0-6.933,0-10.28,0.239l-46.976,129.094h40.879c24.265,0,37.413,18.646,29.046,41.597
	l-57.853,158.977h-48.649l62.156-170.452h-36.457l-62.156,170.452h-48.53l72.914-200.813l44.107-120.727
	c-122.075,34.105-193.389,160.713-159.284,282.788c22.448,80.351,86.731,142.19,167.89,161.51l42.673-117.141l75.065-206.431h89.648
	c24.265,0,37.413,18.767,29.046,41.716L528.44,387.042c-4.735,11.263-15.526,18.798-27.731,19.364h-64.547l-46.856,128.854
	l6.813,0.12c126.75,0,229.5-102.751,229.5-229.5c0-126.749-102.75-229.5-229.5-229.5L396,76.5z M498.318,235.835l-51.159,140.33
	h36.577l51.159-140.33H498.318z"/>
</svg>
