<?xml version="1.0" encoding="utf-8"?>
<!-- Generator: Adobe Illustrator 16.0.0, SVG Export Plug-In . SVG Version: 6.00 Build 0)  -->
<!DOCTYPE svg PUBLIC "-//W3C//DTD SVG 1.1//EN" "http://www.w3.org/Graphics/SVG/1.1/DTD/svg11.dtd">
<svg version="1.1" id="Layer_1" xmlns="http://www.w3.org/2000/svg" xmlns:xlink="http://www.w3.org/1999/xlink" x="0px" y="0px"
	 width="792px" height="612px" viewBox="0 0 792 612" enable-background="new 0 0 792 612" xml:space="preserve">
<title>text-to-peech-reading-speed-fast</title>
<path fill="#FFFCC0" d="M293.836,301.769L100.196,108.128c-2.337-2.33-6.122-2.324-8.452,0.013c-1.116,1.12-1.743,2.637-1.744,4.218
	v93.043c0,1.588,0.632,3.11,1.757,4.231L188.111,306l-96.354,96.354c-1.125,1.121-1.757,2.644-1.757,4.231v93.055
	c0,3.301,2.677,5.976,5.978,5.976c1.587-0.001,3.109-0.633,4.23-1.756L293.849,310.22
	C296.178,307.882,296.173,304.099,293.836,301.769z"/>
<path fill="#FFF64D" d="M497.04,301.769L303.399,108.128c-2.337-2.33-6.122-2.324-8.452,0.013c-1.117,1.12-1.744,2.637-1.744,4.218
	v93.043c0,1.588,0.633,3.11,1.757,4.231L391.314,306l-96.354,96.354c-1.121,1.123-1.748,2.645-1.746,4.231v93.055
	c0.001,3.301,2.677,5.976,5.978,5.976c1.587-0.001,3.109-0.633,4.23-1.756L497.063,310.22
	C499.391,307.879,499.38,304.096,497.04,301.769z"/>
<path fill="#FFF200" d="M700.243,301.769L506.603,108.128c-2.338-2.33-6.122-2.324-8.452,0.013c-1.117,1.12-1.744,2.637-1.744,4.218
	v93.043c0,1.588,0.633,3.11,1.757,4.231L594.518,306l-96.354,96.354c-1.12,1.123-1.748,2.645-1.745,4.231v93.055
	c0.001,3.301,2.678,5.976,5.979,5.976c1.587-0.001,3.108-0.633,4.229-1.756L700.267,310.22
	C702.594,307.879,702.583,304.096,700.243,301.769z"/>
</svg>
